<?xml version="1.0" encoding="utf-8"?>
<!-- Generator: Adobe Illustrator 19.0.0, SVG Export Plug-In . SVG Version: 6.00 Build 0)  -->
<svg  version="1.1" id="layer" xmlns="http://www.w3.org/2000/svg" xmlns:xlink="http://www.w3.org/1999/xlink" x="0px" y="0px"
	 viewBox="-153 -46 652 652" style="enable-background:new -153 -46 652 652;" xml:space="preserve">
<style type="text/css">
	.st0{fill:#3B4975;}
	.st1{fill:#62B146;}
</style>
<rect x="-88.1" y="26" class="st0" width="512.7" height="182.4"/>
<rect x="-88.1" y="343.6" class="st1" width="512.7" height="182.4"/>
<g>
	<path class="st0" d="M-50.5,251.9h5.3c6.6,0,10,2.5,10,6.8c0,4.4-3.4,6.8-10,6.8h-5.3V251.9z M-88.1,326.1h53.2
		c27.6,0,41.7-9.5,41.7-27.5c0-12.8-7.3-20.4-22.5-23.1c10.9-2.2,17.3-9.5,17.3-20.1c0-16.1-13-26.5-36.4-26.5h-53.4V326.1z
		 M-50.5,286.5h6.7c8.3,0,12.5,2.9,12.5,7.8c0,4.9-4.2,7.8-12.5,7.8h-6.7V286.5z"/>
	<path class="st0" d="M11.4,228.8h40.1v53.1c0,10.2,1.7,16.2,11.1,16.2c9.2,0,11.2-6,11.2-16.2v-53.1h40.1v52.8
		c0,11.7-1.2,21-6.6,28.3c-8.4,11.7-24.7,18.8-44.8,18.8c-20.1,0-36.4-7.2-44.8-18.8c-5.3-7.4-6.4-16.6-6.4-28.3V228.8z"/>
	<polygon class="st0" points="122.2,228.8 161.5,228.8 194.9,279.7 195,228.8 233.7,228.8 233.7,326.1 194,326.1 161,275.6 
		160.9,326.1 122.2,326.1 	"/>
	<polygon class="st0" points="281.8,257.8 242.7,257.8 242.7,228.8 345.6,228.8 298.9,296.2 340.1,296.2 340.1,326.1 233.7,326.1 	
		"/>
	<polygon class="st0" points="345.3,228.8 385.5,228.8 385.5,294.5 424.6,294.5 424.6,326.1 345.3,326.1 	"/>
</g>
</svg>
